<svg width="16" height="16" viewBox="0 0 16 16" fill="none" xmlns="http://www.w3.org/2000/svg">
<path d="M6.76721 10.2766C6.96565 10.5531 7.37658 10.5531 7.57502 10.2766L10.8656 5.71406C10.925 5.63125 10.8656 5.51562 10.7641 5.51562H10.0313C9.8719 5.51562 9.72033 5.59219 9.62658 5.72344L7.1719 9.1297L6.05939 7.58595C5.96564 7.45626 5.81565 7.37813 5.65471 7.37813H4.9219C4.82033 7.37813 4.76096 7.49376 4.82033 7.57657L6.76721 10.2766Z" fill="white" fill-opacity="0.54"/>
<path d="M13.75 1.75H2.25C1.97344 1.75 1.75 1.97344 1.75 2.25V13.75C1.75 14.0266 1.97344 14.25 2.25 14.25H13.75C14.0266 14.25 14.25 14.0266 14.25 13.75V2.25C14.25 1.97344 14.0266 1.75 13.75 1.75ZM13.125 13.125H2.875V2.875H13.125V13.125Z" fill="white" fill-opacity="0.54"/>
</svg>
